<?xml version="1.0" encoding="utf-8"?>
<!-- Generator: Adobe Illustrator 26.0.0, SVG Export Plug-In . SVG Version: 6.00 Build 0)  -->
<svg version="1.1" id="Capa_1" xmlns="http://www.w3.org/2000/svg" xmlns:xlink="http://www.w3.org/1999/xlink" x="0px" y="0px"
	 viewBox="0 0 384 512" style="enable-background:new 0 0 384 512;" xml:space="preserve">
<style type="text/css">
	.st0{display:none;}
	.st1{display:none;fill:none;stroke:#000000;stroke-width:32;stroke-miterlimit:10;}
</style>
<path class="st0" d="M342.6,233.4c12.5,12.5,12.5,32.8,0,45.3l-192,192c-12.5,12.5-32.8,12.5-45.3,0s-12.5-32.8,0-45.3L274.7,256
	L105.4,86.6c-12.5-12.5-12.5-32.8,0-45.3s32.8-12.5,45.3,0l192,192L342.6,233.4z"/>
<path d="M63,506.1L63,506.1c-8-8-8.1-20.9-0.1-28.9l219.5-221.7L62.9,34.9c-8-8-7.9-21,0.1-28.9l0,0C71-2,83.9-2,91.9,6L318,233.3
	c12.1,12.2,12.2,31.9,0.1,44.2L91.9,505.9C83.9,514,71,514,63,506.1z"/>
<polyline class="st1" points="-71.6,452 122.4,256 -71.6,61 "/>
</svg>
