<?xml version="1.0" encoding="utf-8"?>
<!-- Generator: Adobe Illustrator 26.0.0, SVG Export Plug-In . SVG Version: 6.00 Build 0)  -->
<svg version="1.1" id="Capa_1" xmlns="http://www.w3.org/2000/svg" xmlns:xlink="http://www.w3.org/1999/xlink" x="0px" y="0px"
	 viewBox="0 0 383.5 208.3" style="enable-background:new 0 0 383.5 208.3;" xml:space="preserve">
<style type="text/css">
	.st0{display:none;}
	.st1{display:none;fill:none;stroke:#000000;stroke-width:32;stroke-miterlimit:10;}
</style>
<path class="st0" d="M342.4,83.2c12.5,12.5,12.5,32.8,0,45.3l-192,192c-12.5,12.5-32.8,12.5-45.3,0s-12.5-32.8,0-45.3l169.4-169.4
	L105.2-63.6c-12.5-12.5-12.5-32.8,0-45.3s32.8-12.5,45.3,0l192,192L342.4,83.2z"/>
<path d="M4.4,7.5L4.4,7.5c6-6,15.7-6.1,21.7-0.1l166.1,164.4L357.4,7.4c6-6,15.7-5.9,21.7,0.1l0,0c6,6,5.9,15.7-0.1,21.7
	L208.8,198.6c-9.1,9.1-23.9,9.1-33.1,0L4.5,29.2C-1.5,23.2-1.5,13.5,4.4,7.5z"/>
<polyline class="st1" points="-71.8,301.8 122.2,105.8 -71.8,-89.2 "/>
</svg>
