<?xml version="1.0" encoding="utf-8"?>
<!-- Generator: Adobe Illustrator 26.0.0, SVG Export Plug-In . SVG Version: 6.00 Build 0)  -->
<svg version="1.1" id="Capa_1" xmlns="http://www.w3.org/2000/svg" xmlns:xlink="http://www.w3.org/1999/xlink" x="0px" y="0px"
	 viewBox="0 0 262.4 350" style="enable-background:new 0 0 262.4 350;" xml:space="preserve">
<style type="text/css">
	.st0{display:none;}
	.st1{display:none;stroke:#000000;stroke-width:32;stroke-miterlimit:10;}
</style>
<path class="st0" d="M79.8,118.4c12.5,12.5,12.5,32.8,0,45.3l-192,192c-12.5,12.5-32.8,12.5-45.3,0s-12.5-32.8,0-45.3L11.9,141
	L-157.4-28.4c-12.5-12.5-12.5-32.8,0-45.3s32.8-12.5,45.3,0l192,192L79.8,118.4z"/>
<polyline class="st1" points="-334.4,337 -140.4,141 -334.4,-54 "/>
<g>
	<path d="M0,46.1c0-9.3,2-18,7.3-25.7C15.5,8.6,26.6,1.5,41.2,0.6c17.7-1.1,35.5-0.3,53.2-0.4c15.1-0.1,30.1,0.2,45.2-0.1
		c9.1-0.2,16.4,2.8,23,9.4c30.4,30.8,61.1,61.4,91.9,91.9c5.5,5.5,8.1,11.7,8.1,19.5c-0.1,61.1,0,122.3-0.1,183.4
		c0,19.6-10.7,35.5-28.8,42.7c-5.1,2-10.5,2.9-16,2.9c-57.6,0-115.3,0.1-172.9,0c-22.1,0-40.1-15.2-44-36.8C0.2,310,0,89.1,0,46.1z
		 M11.4,174.9c0,42.8,0,85.5,0,128.3c0,8.6,2.1,16.7,7.6,23.5c6.9,8.5,16.4,11.9,26.9,11.9c56.9,0.1,113.8,0.1,170.7,0
		c8.3,0,16.1-2.3,22.6-7.7c8.4-7,11.7-16.4,11.7-27c0.1-59.8,0-119.7,0.1-179.5c0-2.7-0.9-3.4-3.5-3.4c-23.4,0.1-46.7,0.1-70.1,0
		c-3.6,0-7.2-0.3-10.8-0.3c-10.7,0.1-25.1-13.1-24.8-26c0-1.5,0-54.1,0-79c0-3.9,0-3.9-4-3.9c-12.7,0-25.3,0-38,0
		c-18.4,0-36.8-0.1-55.1,0c-10.6,0.2-19.8,4-26.4,12.7c-5,6.5-6.9,14.2-6.9,22.4C11.4,89.6,11.4,132.2,11.4,174.9z M153.4,17.8
		c0,0.3-0.1,49.7-0.1,74c0,3.7,0.9,7.3,2.9,10.5c3.5,5.4,8.9,6.9,14.9,7c23.7,0.1,73,0.4,73.6-0.3C214.3,78.6,183.9,48.2,153.4,17.8
		z"/>
	<path d="M159.5,186.5c-1.3,0.1-2.7-0.4-4.1-0.9c-9.5-3-19-5.5-29.1-4.7c-6.9,0.5-13.7,1.4-19.7,5.6c-10.2,7.2-10.2,21.4,0.3,28.1
		c6.7,4.3,14.4,6.3,21.9,8.3c11.1,3,21.7,7,32.1,12c12.8,6.2,15.8,18.7,13,30c-3.1,12.7-12,19.7-24.2,23c-3.2,0.9-6.5,1.6-9.8,1.7
		c-2.2,0.1-3,1.1-3,3.3c0,3,0.4,6.1-0.5,9.1c-0.8,2.6-2.6,4.1-5.3,4.1s-4.5-1.5-5.3-4.1c-0.4-1.2-0.6-8.1-0.6-10.2
		c0-1.6-0.6-2.2-2.3-2.4c-11-1.4-21.3-5.1-31.6-8.9c-3.5-1.3-5-4.7-3.9-7.6c1.2-3.2,4.5-4.4,8.4-3c9.1,3.3,18.3,6.5,27.9,7.9
		c9.2,1.3,18.5,1.1,27.3-2.4c8.6-3.4,13.2-11.5,11.8-20.6c-0.7-4.8-3.6-8-7.7-10.2c-7.6-4.2-15.8-6.7-24.1-8.8
		c-10.4-2.7-20.5-5.6-30.1-10.9c-15-8.2-15.9-24.4-10.9-36c4.1-9.5,11.9-14.5,21.5-17.2c3.7-1,7.4-1.7,11.2-2c2.1-0.2,2.7-1.1,2.6-3
		c-0.1-1.8,0-3.7,0-5.5c0.1-4.9,2.4-8,5.9-8c3.5,0.1,5.7,3.1,5.7,8.1c0,2,0.1,4.1,0,6.1c-0.1,1.8,0.5,2.6,2.4,2.9
		c6.9,1,13.6,2.4,20.2,4.7c1.3,0.5,2.6,1,3.7,1.9c2,1.6,2.7,3.8,1.9,6.2C164.3,185.6,162.3,186.6,159.5,186.5z"/>
</g>
<path d="M49.2,98.9c-3.1-0.4-5.5-2.9-5.4-5.7c0-2.7,2.3-5.1,5.3-5.5c0.7-0.1,65.1-0.1,65.9,0c3.1,0.5,5.5,3,5.5,5.7
	c-0.1,2.8-2.7,5.4-5.9,5.6C112,99,50.1,99,49.2,98.9z"/>
<path d="M115.6,43.8c2.8,0.6,4.7,2.8,4.8,5.3c0.1,2.3-1.8,4.7-4.3,5.5c-1.4,0.5-2.9,0.5-4.4,0.5c-19.9,0-39.7,0-59.6,0
	c-2,0-3.9-0.2-5.6-1.3c-1.9-1.2-3-2.8-2.7-5.1c0.3-2.4,1.6-4.1,4-4.9C49.1,43.5,114.3,43.6,115.6,43.8z"/>
</svg>
