<?xml version="1.0" encoding="UTF-8" standalone="no"?>
<!-- Created with Inkscape (http://www.inkscape.org/) -->

<svg
   version="1.1"
   id="svg2"
   xml:space="preserve"
   width="666.66669"
   height="666.66669"
   viewBox="0 0 666.66669 666.66669"
   sodipodi:docname="S.ai"
   xmlns:inkscape="http://www.inkscape.org/namespaces/inkscape"
   xmlns:sodipodi="http://sodipodi.sourceforge.net/DTD/sodipodi-0.dtd"
   xmlns="http://www.w3.org/2000/svg"
   xmlns:svg="http://www.w3.org/2000/svg"><defs
     id="defs6"><clipPath
       clipPathUnits="userSpaceOnUse"
       id="clipPath16"><path
         d="M 0,500 H 500 V 0 H 0 Z"
         id="path14" /></clipPath></defs><sodipodi:namedview
     id="namedview4"
     pagecolor="#ffffff"
     bordercolor="#666666"
     borderopacity="1.0"
     inkscape:pageshadow="2"
     inkscape:pageopacity="0.0"
     inkscape:pagecheckerboard="0" /><g
     id="g8"
     inkscape:groupmode="layer"
     inkscape:label="S"
     transform="matrix(1.3333333,0,0,-1.3333333,0,666.66667)"><g
       id="g10"><g
         id="g12"
         clip-path="url(#clipPath16)"><g
           id="g18"
           transform="translate(250.146,54.3514)"><path
             d="m 0,0 c -108.142,0 -195.803,87.653 -195.803,195.795 0,108.142 87.661,195.795 195.803,195.795 108.134,0 195.795,-87.653 195.795,-195.795 C 195.795,87.653 108.134,0 0,0 m -0.042,442.729 c -136.381,0 -246.933,-110.552 -246.933,-246.934 0,-136.381 110.552,-246.934 246.933,-246.934 136.374,0 246.934,110.553 246.934,246.934 0,136.382 -110.56,246.934 -246.934,246.934"
             style="fill:#000000;fill-opacity:1;fill-rule:evenodd;stroke:none"
             id="path20" /></g><g
           id="g22"
           transform="translate(283.3903,232.4273)"><path
             d="m 0,0 -1.268,-2.044 -1.268,-2.052 -5.323,3.304 0.384,-7.609 -3.879,0.142 -0.601,10.003 -17.193,10.661 c -0.517,-0.4 -1.093,-0.734 -1.719,-0.968 l -0.016,-20.205 8.175,-5.789 -1.927,-3.371 -6.257,4.347 -0.008,-6.265 -2.411,0.008 h -2.403 l 0.009,6.257 -6.265,-4.322 -1.927,3.371 8.192,5.773 0.025,20.18 c -0.709,0.267 -1.36,0.65 -1.927,1.126 L -55.118,2.528 -56.069,-7.45 h -3.887 l 0.659,7.583 -5.44,-3.103 -1.193,2.086 -1.193,2.094 5.431,3.103 -6.874,3.287 1.969,3.345 9.085,-4.238 17.56,10.045 c -0.05,0.316 -0.075,0.634 -0.075,0.967 0,0.484 0.05,0.951 0.142,1.402 l -17.202,10.644 -9.226,-3.929 -1.852,3.412 6.982,3.045 -5.331,3.296 1.268,2.052 1.268,2.044 5.323,-3.296 -0.392,7.609 3.879,-0.134 0.609,-10.002 17.302,-10.704 c 0.501,0.367 1.051,0.668 1.643,0.885 v 20.322 l -8.183,5.781 1.918,3.37 6.265,-4.338 v 6.265 h 4.814 v -6.265 l 6.257,4.338 1.927,-3.37 -8.184,-5.781 V 23.984 c 0.642,-0.258 1.243,-0.609 1.769,-1.043 l 17.644,10.12 0.942,9.977 3.88,0.009 -0.643,-7.584 5.431,3.112 1.201,-2.086 L 0.617,34.396 -4.814,31.284 2.061,28.005 0.1,24.66 -8.985,28.89 -26.637,18.762 c 0.05,-0.342 0.092,-0.684 0.092,-1.043 0,-0.409 -0.042,-0.801 -0.117,-1.193 L -9.419,5.84 -0.192,9.752 1.66,6.34 -5.322,3.304 Z m -33.403,64.795 c -25.97,0 -47.034,-21.056 -47.034,-47.034 0,-25.978 21.064,-47.034 47.034,-47.034 25.978,0 47.043,21.056 47.043,47.034 0,25.978 -21.065,47.034 -47.043,47.034"
             style="fill:#000000;fill-opacity:1;fill-rule:nonzero;stroke:none"
             id="path24" /></g><g
           id="g26"
           transform="translate(240.1277,192.5917)"><path
             d="M 0,0 C 3.113,-0.501 6.311,-0.753 9.568,-0.742 35.499,-0.651 57.447,16.221 65.158,39.557 190.755,-177.717 -71.48,-127.702 -98.075,-107.772 -54.823,-112.828 68.517,-117.47 0,0"
             style="fill:#000000;fill-opacity:1;fill-rule:nonzero;stroke:none"
             id="path28" /></g><g
           id="g30"
           transform="translate(259.059,307.6422)"><path
             d="m 0,0 c -3.112,0.512 -6.308,0.776 -9.565,0.776 -25.932,0 -47.939,-16.795 -55.732,-40.104 C -190.128,178.387 71.929,127.449 98.453,107.426 55.219,112.634 -68.103,117.71 0,0"
             style="fill:#000000;fill-opacity:1;fill-rule:nonzero;stroke:none"
             id="path32" /></g></g></g></g></svg>
