<?xml version="1.0" encoding="utf-8"?>
<!-- Generator: Adobe Illustrator 26.0.0, SVG Export Plug-In . SVG Version: 6.00 Build 0)  -->
<svg version="1.1" id="Capa_6" xmlns="http://www.w3.org/2000/svg" xmlns:xlink="http://www.w3.org/1999/xlink" x="0px" y="0px"
	 viewBox="0 0 2609.5 431" style="enable-background:new 0 0 2609.5 431;" xml:space="preserve">
<path d="M2331.5,150.3l-64.8,138.8h-50.6l88.5-189.1c2.8-5.9,6.5-11.4,10.9-16.2c8.7-9.2,23.3-9.6,32.5-0.9c0.1,0.1,0.3,0.3,0.4,0.4
	c4.6,4.9,8.3,10.6,11,16.7l86.2,189.1h-51.9L2331.5,150.3z"/>
<path d="M2030.5,288.7h-42.4v-80.4h-81.9v80.5h-42.8V80h42.8V154h81.9V80h42.4V288.7z"/>
<path d="M2093.1,80l62,138.5L2219.8,80h50.2l-88.1,188.7c-2.9,5.9-6.7,11.4-11.1,16.2c-8.5,9.1-22.9,9.6-32,1.1
	c-0.2-0.2-0.4-0.4-0.6-0.6c-4.6-4.9-8.3-10.5-11-16.7L2040.9,80H2093.1z"/>
<path d="M2609.5,235.1l-27.4,53.7h-69.2c-11.6,0.1-22.9-2.7-33.1-8.1c-10.3-5.5-19.2-13.1-26.3-22.3c-7.7-10.1-13.5-21.5-17.3-33.7
	c-4.3-13.7-6.4-27.9-6.3-42.3c-0.2-14.1,2-28.2,6.3-41.6c3.8-11.8,9.6-22.7,17.3-32.4c14.4-18.1,36.3-28.5,59.4-28.2h96.6
	l-27.4,54.2h-69.2c-5.6,0-11.1,1.2-16.1,3.8c-5,2.5-9.3,6.1-12.8,10.5c-3.7,4.8-6.6,10.2-8.4,16.1c-4.1,13.4-4.1,27.6-0.1,41
	c1.8,5.7,4.6,11.1,8.4,15.8c3.5,4.3,7.9,7.7,12.9,10.1c5,2.4,10.5,3.6,16.1,3.6L2609.5,235.1z"/>
<path d="M184.7,118h-102c-6.7,0-11.7-1.5-15-4.5c-3.3-3-4.9-8.1-4.9-15.5c0-7.3,1.6-12.4,4.9-15.3c3.3-2.9,8.3-4.3,15-4.2h130
	l37.3-73.9H87.1c-14.2,0-26.4,2.1-36.6,6.4C41,14.9,32.4,21,25.6,28.9C18.9,37,14.1,46.5,11.3,56.7C8.1,68.5,6.6,80.7,6.7,93
	c-0.1,11.2,1.3,22.5,4.2,33.3c2.5,9.4,6.9,18.1,12.9,25.7c5.9,7.2,13.4,12.8,21.8,16.6c8.8,4,19.2,5.9,31.4,5.9h102
	c6.9,0,12,1.6,15.1,4.7c3.2,3.1,4.8,8.4,4.8,15.7c0,7.4-1.6,12.7-4.8,15.9s-8.2,4.9-15.1,4.9H37.3L0,288.7h174.6
	c14.2,0,26.4-2.1,36.6-6.4c9.7-3.9,18.4-10.2,25.1-18.3c6.5-7.9,11.3-17.7,14.3-29.3c3.1-12.8,4.6-25.9,4.5-39.1
	c0-26-6-45.5-17.9-58.4C225.1,124.4,207.7,118,184.7,118z"/>
<path d="M459,164.7c0,9.9-1,18.4-2.9,25.5c-1.7,6.5-5,12.5-9.7,17.4c-4.5,4.5-10.5,7.8-17.9,9.8c-7.5,2-16.8,3-28,3
	c-15,0-27.1-0.9-36.4-2.8c-9.3-1.8-16.6-5-21.8-9.3c-5.2-4.5-8.9-10.5-10.5-17.2c-1.9-7.1-2.8-15.8-2.8-26.3V4.7h-57.7v160.1
	c0,21.5,2.5,40.3,7.4,56.2c5,16,12.7,29.4,23.3,40.1c10.5,10.8,23.9,18.8,40.2,24.2c16.3,5.4,35.7,8.1,58.3,8.1
	c77.9,0,116.9-42.9,116.9-128.7V4.7H459V164.7z"/>
<path d="M619.3,4.7c-14.2,0-26.4,2.1-36.6,6.4c-9.6,3.9-18.2,10-24.9,17.8c-6.7,8.1-11.6,17.6-14.3,27.8
	c-3.2,11.8-4.8,24.1-4.6,36.3c-0.1,11.2,1.3,22.5,4.2,33.3c2.5,9.4,6.8,18.1,12.9,25.7c5.9,7.2,13.4,12.8,21.9,16.6
	c8.8,4,19.2,5.9,31.4,5.9h102c6.9,0,12,1.6,15.1,4.7c3.2,3.1,4.8,8.4,4.8,15.7c0,7.4-1.6,12.7-4.8,15.9c-3.2,3.2-8.2,4.9-15.1,4.9
	H569.4l-37.3,73h174.6c14.2,0,26.4-2.1,36.6-6.4c9.7-3.9,18.4-10.2,25.1-18.3c6.5-7.9,11.3-17.7,14.3-29.3
	c3.1-12.8,4.6-25.9,4.5-39.1c0-26-6-45.5-17.9-58.4S739.8,118,716.8,118h-102c-6.7,0-11.7-1.5-15-4.5s-4.9-8.1-4.9-15.5
	c0-7.3,1.6-12.4,4.9-15.3c3.3-2.9,8.3-4.3,15-4.2h243.7v210.2h58V78.5h67L1021,4.7H619.3z"/>
<rect x="1285.4" y="4.7" width="58" height="284.1"/>
<polygon points="1605.5,4.7 1392.5,4.7 1354.9,78.5 1442.9,78.5 1442.9,288.7 1500.9,288.7 1500.9,78.5 1567.9,78.5 "/>
<path d="M1737.2,31.8c-3.7-8.4-8.7-16.1-15-22.7C1710-3,1690.3-3,1678.1,9.1c-0.2,0.2-0.4,0.4-0.6,0.6c-6,6.6-11,14-14.9,22.1
	l-120.2,256.9h68.6l88-188.5l84.8,188.5h70.4L1737.2,31.8z"/>
<path d="M1139.1,9.5c-12.2-12.2-31.9-12.2-44.1,0c-0.2,0.2-0.4,0.4-0.6,0.6c-6,6.6-11,14-14.9,22.1L959.3,289.1h68.7l88-188.5
	l84.8,188.5h70.4L1154,32.2C1150.4,23.8,1145.3,16.1,1139.1,9.5z"/>
<path d="M12.9,340.6v29.5h37v-29.5h12.8V413H49.9v-30.2h-37V413H0.3v-72.3H12.9z"/>
<path d="M171,340.6v12.7h-36.2c-3.9,0-6.6,0.8-8.4,2.5c-1.8,1.8-2.7,4.2-2.6,6.7c0,5.7,3.7,8.6,11,8.6h35.6v11.5h-35.9
	c-7.3,0-11,2.9-11,8.8c-0.1,2.5,0.8,5,2.7,6.7c1.8,1.6,4.5,2.4,8.2,2.4h36.7V413h-36.7c-3.7,0.1-7.4-0.4-11-1.5
	c-2.8-0.8-5.3-2.2-7.5-4.1c-1.9-1.7-3.4-3.9-4.3-6.3c-0.9-2.5-1.4-5.2-1.3-7.8c-0.1-3.6,0.8-7.2,2.7-10.3c1.9-2.8,4.6-5,7.7-6.3
	c-6.8-2.8-10.2-8.2-10.2-16.3c0-2.7,0.4-5.4,1.4-7.9c0.9-2.4,2.4-4.6,4.3-6.3c2.2-1.9,4.7-3.3,7.5-4.1c3.6-1,7.3-1.5,11-1.4
	L171,340.6z"/>
<path d="M227.8,413h-13.9l25.4-64.3c1.3-3.4,3.2-5.8,5.7-7.2c2.9-1.5,6.2-2.2,9.5-2.1c3.3-0.1,6.5,0.6,9.4,2.1
	c2.5,1.4,4.4,3.8,5.6,7.2l24.4,64.3h-14l-22-58.2c-0.5-1.5-1.9-2.5-3.5-2.5c-1.6-0.1-3.1,0.9-3.7,2.5L227.8,413z"/>
<path d="M379.6,340.6v12.7h-21.1V413h-12.8v-59.7h-21.1v-12.7L379.6,340.6z"/>
<path d="M429,398.4v17.4c0,10.1-4.6,15.2-13.9,15.2h-3.8v-9.3h1.3c2.8,0,4.2-1.5,4.2-4.6v-18.7H429z"/>
<path d="M475.3,340.6l22,58.2c0.5,1.5,1.9,2.5,3.5,2.5c1.6,0,3-1,3.5-2.5l23-58.2h14l-25.5,64.3c-1,3-3,5.6-5.7,7.2
	c-2.9,1.5-6.1,2.2-9.4,2.1c-3.2,0.1-6.4-0.6-9.3-2c-2.6-1.3-4.6-3.8-6-7.3l-24.2-64.3L475.3,340.6z"/>
<path d="M643,340.6v12.7h-36.2c-3.8,0-6.6,0.8-8.4,2.5c-1.8,1.8-2.7,4.2-2.6,6.7c0,5.7,3.7,8.6,11,8.6h35.6v11.5h-35.9
	c-7.3,0-11,2.9-11,8.8c-0.1,2.5,0.8,5,2.7,6.7c1.8,1.6,4.5,2.4,8.2,2.4h36.7V413h-36.7c-3.7,0.1-7.4-0.4-11-1.5
	c-2.8-0.8-5.3-2.2-7.5-4.1c-1.9-1.7-3.4-3.9-4.3-6.3c-0.9-2.5-1.4-5.2-1.3-7.8c-0.1-3.6,0.8-7.2,2.7-10.3c1.9-2.8,4.6-5,7.7-6.3
	c-6.8-2.8-10.2-8.2-10.2-16.3c0-2.7,0.4-5.4,1.4-7.9c0.9-2.4,2.4-4.6,4.3-6.3c2.2-1.9,4.7-3.3,7.5-4.1c3.6-1,7.3-1.5,11-1.4
	L643,340.6z"/>
<path d="M705.2,413h-12.7v-57.9c0-4.7,1.4-8.5,4.1-11.4c2.7-2.9,6.9-4.3,12.5-4.3c5,0,8.8,1.2,11.4,3.6c2.8,2.7,4.9,6.1,6.2,9.8
	l21.1,46.2c0.4,0.8,1,1.6,1.7,2.2c0.8,0.6,1.9,0.9,2.9,0.8c1.2,0.1,2.3-0.3,3.2-1.1c0.8-0.8,1.2-1.9,1.1-3v-57.2h12.8v57.8
	c0,4.8-1.4,8.6-4.1,11.5c-2.8,2.9-6.9,4.3-12.5,4.3c-2.2,0-4.5-0.3-6.6-0.9c-1.8-0.6-3.5-1.5-4.9-2.7c-1.4-1.2-2.6-2.6-3.6-4.2
	c-1.1-1.8-1.9-3.6-2.6-5.6l-21.1-46.2c-0.7-1.9-2.5-3.1-4.5-3.1c-1.2-0.1-2.4,0.3-3.3,1.1c-0.8,0.8-1.2,1.9-1.1,3L705.2,413z"/>
<path d="M869.2,340.6v12.7h-21.1V413h-12.8v-59.7h-21.1v-12.7L869.2,340.6z"/>
<path d="M1012.3,331.8c2.7-0.1,5.5,0.4,8,1.4c4.3,1.8,7.6,5.4,9,9.8c0.7,2.3,1.1,4.7,1.1,7.1c0.1,3.7-1,7.4-3.1,10.4
	c-2.1,2.9-5.6,5.6-10.5,8l-6.6,3.3l12.8,14.7l9.4-12.7h13.4l-15.7,20.8l16,18.2h-14.6l-8.4-9.5c-1.6,1.8-3.3,3.5-5.2,5
	c-1.5,1.2-3.1,2.1-4.8,2.9c-1.5,0.7-3.2,1.1-4.8,1.3c-1.7,0.2-3.5,0.3-5.2,0.3h-12.2c-2.5,0-5-0.4-7.3-1.2c-2.3-0.8-4.4-2-6.1-3.6
	c-1.8-1.8-3.2-3.9-4.1-6.3c-1.1-2.9-1.6-6-1.5-9.1c0-2.2,0.3-4.3,0.9-6.4c0.6-2,1.6-3.8,3-5.3c1.7-1.9,3.7-3.5,5.8-4.9
	c3-1.9,6.1-3.6,9.3-5l3-1.4l-3.8-4.4c-1.8-2-3.3-4.3-4.4-6.8c-1.2-2.7-1.7-5.6-1.7-8.5c0-2.4,0.4-4.8,1.2-7.1c0.8-2.2,2-4.2,3.5-5.8
	c1.6-1.7,3.6-3.1,5.7-4c2.5-1,5.2-1.5,7.9-1.4L1012.3,331.8z M1003.2,401.9c2.3,0,4.5-0.4,6.5-1.3c2.4-1.3,4.6-3.1,6.3-5.3
	l-16.2-18.4l-3.4,1.7c-2.5,1.3-4.6,2.4-6.2,3.4c-1.4,0.8-2.7,1.8-3.9,2.9c-0.9,0.8-1.6,1.9-2,3c-0.4,1.1-0.6,2.3-0.5,3.4
	c-0.1,2.8,0.8,5.6,2.5,7.8c1.8,2,4.3,3.1,7,2.9L1003.2,401.9z M996.1,351.4c-0.1,1.7,0.3,3.4,1.1,5c0.9,1.6,1.9,3.1,3.2,4.4l3.7,4.2
	l6.6-3.2c2.3-1,4.4-2.4,6.2-4.2c1.5-1.7,2.2-3.9,2.1-6.2c0.1-2.2-0.6-4.3-1.8-6.2c-1.2-1.7-3.3-2.6-6.3-2.6h-6.4
	c-2.9,0-5,0.8-6.3,2.5C996.7,346.9,996.1,349.1,996.1,351.4z"/>
<path d="M1160,413h-13.9l25.4-64.3c1-3,3-5.6,5.7-7.2c2.9-1.5,6.2-2.2,9.5-2.1c3.3-0.1,6.5,0.6,9.4,2.1c2.5,1.4,4.3,3.8,5.6,7.2
	l24.4,64.3h-14l-22-58.2c-0.5-1.5-1.9-2.5-3.5-2.5c-1.6-0.1-3.1,0.9-3.6,2.5L1160,413z"/>
<path d="M1282.6,340.6V413h-12.6v-72.3H1282.6z"/>
<path d="M1372.2,340.6c3.6-0.1,7.1,0.5,10.5,1.8c2.7,1,5.2,2.6,7.2,4.7c1.9,2,3.3,4.3,4.2,6.9c0.9,2.7,1.4,5.4,1.4,8.3
	c0,2.3-0.3,4.6-0.8,6.8c-0.6,2.2-1.5,4.4-2.7,6.3c-1.2,2-2.8,3.8-4.7,5.2c-2.1,1.6-4.5,2.8-7.1,3.4L1397,413h-14l-16.5-28h-18.9
	c-0.9-0.1-1.7,0.5-1.8,1.4c0,0.1,0,0.3,0,0.5V413h-12.7v-28.6c0-4.1,0.9-7,2.7-8.8c1.8-1.8,4.7-2.7,8.7-2.7h28.2
	c1.6,0,3.2-0.3,4.6-0.9c1.2-0.5,2.3-1.3,3.1-2.2c0.8-0.9,1.4-2,1.8-3.2c0.4-1.2,0.6-2.5,0.6-3.8c0-2.5-0.8-4.8-2.4-6.7
	c-1.6-1.9-4.2-2.8-7.7-2.8H1333v-12.7L1372.2,340.6z"/>
<path d="M1562.5,340.6v12.7h-28c-7,0-12.1,1.8-15.3,5.5s-4.8,9.7-4.8,18.1c0,8.3,1.6,14.3,4.7,18c3.1,3.7,8.3,5.6,15.3,5.5h28V413
	h-28c-10.6,0-18.7-3-24.3-9s-8.4-15.1-8.4-27.2c0-12.2,2.8-21.3,8.4-27.3s13.7-9,24.3-9L1562.5,340.6z"/>
<path d="M1649.6,340.6c10.6,0,18.7,3,24.3,9s8.4,15.1,8.4,27.3c0,12.1-2.8,21.2-8.4,27.1s-13.7,8.9-24.3,8.9h-9.9
	c-10.6,0-18.7-3-24.3-8.9c-5.6-5.9-8.4-15-8.4-27.1c0-12.2,2.8-21.3,8.4-27.3c5.6-6,13.7-9,24.3-9H1649.6z M1639.7,353.3
	c-7,0-12.1,1.9-15.3,5.6c-3.2,3.7-4.8,9.8-4.8,18.1c0,8.3,1.6,14.3,4.7,17.9c3.1,3.6,8.3,5.5,15.3,5.5h9.9c6.9,0,12-1.8,15.2-5.5
	c3.2-3.7,4.8-9.7,4.8-18c0-8.3-1.6-14.3-4.7-18c-3.1-3.7-8.2-5.6-15.2-5.6L1639.7,353.3z"/>
<path d="M1742.8,413h-12.6v-57.9c0-4.7,1.4-8.5,4.1-11.4c2.7-2.9,6.9-4.3,12.5-4.3c5,0,8.8,1.2,11.4,3.6c2.8,2.7,4.9,6.1,6.2,9.8
	l21.1,46.2c0.4,0.8,1,1.6,1.7,2.2c0.8,0.6,1.9,0.9,2.9,0.8c1.2,0.1,2.3-0.3,3.2-1.1c0.8-0.8,1.2-1.9,1.1-3v-57.2h12.8v57.8
	c0,4.8-1.4,8.6-4.1,11.5s-6.9,4.4-12.5,4.4c-2.2,0-4.5-0.3-6.6-0.9c-1.8-0.6-3.5-1.5-4.9-2.7c-1.4-1.2-2.6-2.6-3.6-4.2
	c-1.1-1.8-1.9-3.6-2.6-5.6l-21.1-46.2c-0.7-1.9-2.5-3.1-4.5-3.1c-1.2-0.1-2.4,0.3-3.3,1.1c-0.8,0.8-1.2,1.9-1.1,3L1742.8,413z"/>
<path d="M1889.1,340.6c10.7,0,18.8,3,24.3,8.9s8.3,15,8.3,27.3c0,12.2-2.8,21.3-8.3,27.2c-5.5,5.9-13.6,8.9-24.3,8.9h-25.5
	c-4,0-6-2-6-5.9v-60.6c0-3.9,2-5.9,6-5.9L1889.1,340.6z M1870.2,399c0,0.9,0.5,1.3,1.4,1.3h17.5c7,0,12.1-1.9,15.2-5.6
	s4.7-9.7,4.7-18c0-8.3-1.6-14.3-4.7-18c-3.1-3.7-8.2-5.6-15.3-5.5h-17.5c-0.9,0-1.4,0.4-1.4,1.3V399z"/>
<path d="M1982.3,340.6V413h-12.6v-72.3H1982.3z"/>
<path d="M2082.2,340.6v12.7h-21.1V413h-12.8v-59.7h-21.1v-12.7L2082.2,340.6z"/>
<path d="M2139.9,340.6V413h-12.6v-72.3H2139.9z"/>
<path d="M2230.3,340.6c10.6,0,18.7,3,24.3,9c5.6,6,8.4,15.1,8.4,27.3c0,12.1-2.8,21.2-8.4,27.1c-5.6,5.9-13.7,8.9-24.3,8.9h-9.8
	c-10.6,0-18.7-3-24.3-8.9c-5.6-5.9-8.4-15-8.4-27.1c0-12.2,2.8-21.3,8.4-27.3c5.6-6,13.7-9,24.3-9H2230.3z M2220.5,353.3
	c-7,0-12.1,1.9-15.3,5.6c-3.2,3.7-4.8,9.8-4.8,18.1c0,8.3,1.6,14.3,4.7,17.9c3.1,3.6,8.3,5.5,15.3,5.4h9.9c6.9,0,12-1.8,15.2-5.5
	c3.2-3.7,4.8-9.7,4.8-18c0-8.3-1.6-14.3-4.7-18s-8.2-5.6-15.2-5.6L2220.5,353.3z"/>
<path d="M2323.5,413h-12.6v-57.9c0-4.7,1.4-8.5,4.1-11.4c2.7-2.9,6.9-4.3,12.5-4.3c5,0,8.8,1.2,11.4,3.6c2.8,2.7,4.9,6.1,6.2,9.8
	l21.1,46.2c0.4,0.8,1,1.6,1.7,2.2c0.8,0.6,1.9,0.9,2.9,0.8c1.2,0.1,2.3-0.3,3.2-1.1c0.8-0.8,1.2-1.9,1.1-3v-57.2h12.8v57.8
	c0,4.8-1.4,8.6-4.1,11.5c-2.7,2.9-6.9,4.3-12.5,4.3c-2.2,0-4.5-0.3-6.6-0.9c-1.8-0.6-3.5-1.5-4.9-2.7c-1.4-1.2-2.6-2.6-3.6-4.2
	c-1.1-1.8-1.9-3.6-2.6-5.6l-21.1-46.1c-0.7-1.9-2.5-3.1-4.5-3.1c-1.2-0.1-2.4,0.3-3.3,1.1c-0.8,0.8-1.2,1.9-1.1,3L2323.5,413z"/>
<path d="M2496.1,340.6v12.7h-36.2c-3.8,0-6.6,0.8-8.4,2.5c-1.8,1.8-2.7,4.2-2.6,6.7c0,5.7,3.7,8.6,11,8.6h35.6v11.5h-35.9
	c-7.3,0-11,2.9-11,8.8c-0.1,2.5,0.8,5,2.7,6.7c1.8,1.6,4.5,2.4,8.2,2.4h36.6V413h-36.6c-3.7,0.1-7.4-0.4-11-1.5
	c-2.8-0.8-5.3-2.2-7.5-4.1c-1.9-1.7-3.4-3.9-4.3-6.3c-0.9-2.5-1.4-5.2-1.3-7.8c-0.1-3.6,0.8-7.2,2.7-10.3c1.9-2.8,4.6-5,7.7-6.3
	c-6.8-2.8-10.2-8.2-10.2-16.3c0-2.7,0.4-5.4,1.4-7.9c0.9-2.4,2.4-4.6,4.3-6.3c2.2-1.9,4.7-3.3,7.5-4.1c3.6-1,7.3-1.5,11-1.4
	L2496.1,340.6z"/>
<path d="M2584.7,340.6c3.6-0.1,7.1,0.5,10.5,1.8c2.7,1,5.2,2.6,7.2,4.7c1.9,2,3.3,4.3,4.2,6.9c0.9,2.7,1.4,5.4,1.3,8.2
	c0,2.3-0.3,4.6-0.9,6.8c-0.6,2.2-1.5,4.4-2.7,6.3c-1.2,2-2.8,3.8-4.7,5.2c-2.1,1.6-4.5,2.8-7.1,3.4l16.8,28.9h-14l-16.5-28h-18.9
	c-0.9-0.1-1.7,0.5-1.8,1.4c0,0.1,0,0.3,0,0.5v26.2h-12.6v-28.6c0-4.1,0.9-7,2.7-8.8c1.8-1.8,4.7-2.7,8.7-2.7h28.2
	c1.6,0,3.1-0.2,4.6-0.9c1.2-0.5,2.3-1.3,3.1-2.2c0.8-0.9,1.4-2,1.8-3.2c0.4-1.2,0.6-2.5,0.6-3.8c0-2.5-0.8-4.8-2.4-6.7
	c-1.6-1.9-4.2-2.8-7.7-2.8h-39.7v-12.7L2584.7,340.6z"/>
</svg>
