<svg id="Capa_6" data-name="Capa 6" xmlns="http://www.w3.org/2000/svg" viewBox="0 0 2609.49 430.98"><path d="M2947.05,1015l-64.78,138.8h-50.55l88.51-189.13a65.9,65.9,0,0,1,10.93-16.25,23,23,0,0,1,32.91-.47,58.66,58.66,0,0,1,11,16.72l86.24,189.13h-51.86Z" transform="translate(-615.51 -864.71)" fill="#7f7f7f"/><path d="M2646.05,1153.44h-42.42V1073h-81.94v80.48h-42.83V944.74h42.83v73.94h81.94V944.74h42.42Z" transform="translate(-615.51 -864.71)" fill="#7f7f7f"/><path d="M2708.63,944.74l62,138.51,64.65-138.51h50.23l-88.12,188.73a70.27,70.27,0,0,1-11.12,16.23,22.65,22.65,0,0,1-32.63.46,58.29,58.29,0,0,1-11-16.69l-86.27-188.73Z" transform="translate(-615.51 -864.71)" fill="#7f7f7f"/><path d="M3225,1099.78l-27.38,53.66h-69.18a69.43,69.43,0,0,1-33.15-8.11A81.32,81.32,0,0,1,3069,1123a108.66,108.66,0,0,1-17.29-33.69,137,137,0,0,1-6.28-42.27,131.16,131.16,0,0,1,6.28-41.64A102,102,0,0,1,3069,973a74.86,74.86,0,0,1,59.4-28.23H3225L3197.62,999h-69.18a35,35,0,0,0-16.06,3.75,38.26,38.26,0,0,0-12.77,10.45,51.14,51.14,0,0,0-8.44,16.06,70.93,70.93,0,0,0-.1,41,46.9,46.9,0,0,0,8.44,15.76,38.49,38.49,0,0,0,12.87,10.14,36.37,36.37,0,0,0,16.06,3.58Z" transform="translate(-615.51 -864.71)" fill="#7f7f7f"/><path d="M800.18,982.75h-102q-10.08,0-15-4.46t-4.9-15.5q0-11,4.9-15.28t15-4.25h130l37.28-73.88H702.66q-21.3,0-36.57,6.37a64.32,64.32,0,0,0-24.94,17.83,73.69,73.69,0,0,0-14.3,27.81,133.39,133.39,0,0,0-4.62,36.31,124,124,0,0,0,4.2,33.33,69.38,69.38,0,0,0,12.9,25.69,59.08,59.08,0,0,0,21.85,16.56q13.17,5.94,31.39,5.94h102q10.36,0,15.13,4.67t4.76,15.71q0,11.06-4.76,15.92t-15.13,4.89H652.78l-37.27,73H790.09q21.3,0,36.57-6.37a63.63,63.63,0,0,0,25.08-18.26q9.81-11.88,14.3-29.3a157.15,157.15,0,0,0,4.48-39.06q0-39.06-17.93-58.38T800.18,982.75Z" transform="translate(-615.51 -864.71)" fill="#0087d4"/><path d="M1074.53,1029.46q0,14.86-2.94,25.47a39,39,0,0,1-9.67,17.41q-6.72,6.79-17.93,9.77t-28,3q-22.43,0-36.43-2.76T957.81,1073a33.07,33.07,0,0,1-10.51-17.2q-2.81-10.6-2.8-26.32V869.38H886.77v160.08q0,32.26,7.43,56.25t23.26,40.13q15.82,16.14,40.21,24.2t58.29,8.07q116.86,0,116.86-128.65V869.38h-58.29Z" transform="translate(-615.51 -864.71)" fill="#0087d4"/><path d="M1234.82,869.38q-21.3,0-36.57,6.37a64.47,64.47,0,0,0-24.94,17.83A73.68,73.68,0,0,0,1159,921.39a133.39,133.39,0,0,0-4.62,36.31,124,124,0,0,0,4.2,33.33,69.36,69.36,0,0,0,12.89,25.69,59.2,59.2,0,0,0,21.86,16.56q13.17,5.94,31.39,5.94h102q10.37,0,15.13,4.67t4.77,15.71q0,11.06-4.77,15.92t-15.13,4.89h-141.8l-37.27,73h174.59q21.29,0,36.57-6.37a63.63,63.63,0,0,0,25.08-18.26q9.81-11.88,14.29-29.3a156.66,156.66,0,0,0,4.49-39.06q0-39.06-17.94-58.38t-52.4-19.32h-102q-10.1,0-15-4.46t-4.91-15.5q0-11,4.91-15.28t15-4.25H1474v210.18h58V943.26h67l37.55-73.88Z" transform="translate(-615.51 -864.71)" fill="#0087d4"/><rect x="1285.44" y="4.67" width="58.01" height="284.06" fill="#0087d4"/><polygon points="1605.46 4.67 1392.48 4.67 1354.93 78.55 1442.93 78.55 1442.93 288.73 1500.94 288.73 1500.94 78.55 1567.91 78.55 1605.46 4.67" fill="#0087d4"/><path d="M2352.68,896.56a79.78,79.78,0,0,0-15-22.72,31.17,31.17,0,0,0-44.7.64,89.29,89.29,0,0,0-14.85,22.08l-120.22,256.88h68.65l88-188.52,84.81,188.52h70.44Z" transform="translate(-615.51 -864.71)" fill="#0087d4"/><path d="M1754.56,874.2a31.17,31.17,0,0,0-44.7.64A89.41,89.41,0,0,0,1695,896.91L1574.79,1153.8h68.66l88-188.53,84.82,188.53h70.43L1769.55,896.91A79.66,79.66,0,0,0,1754.56,874.2Z" transform="translate(-615.51 -864.71)" fill="#0087d4"/><path d="M628.45,1205.34v29.47h37v-29.47h12.76v72.34H665.42v-30.22h-37v30.22H615.8v-72.34Z" transform="translate(-615.51 -864.71)" fill="#7f7f7f"/><path d="M786.53,1205.34V1218H750.3c-3.86,0-6.64.82-8.36,2.46a8.81,8.81,0,0,0-2.57,6.65q0,8.58,11,8.57H786v11.47h-35.9q-11,0-11,8.79a8.54,8.54,0,0,0,2.68,6.7c1.78,1.6,4.54,2.41,8.25,2.41h36.65v12.64H750a35.27,35.27,0,0,1-11-1.5,21,21,0,0,1-7.51-4.12,15.4,15.4,0,0,1-4.28-6.27,22.36,22.36,0,0,1-1.34-7.83,18.59,18.59,0,0,1,2.68-10.34,16.65,16.65,0,0,1,7.71-6.27q-10.18-4.17-10.18-16.29a22,22,0,0,1,1.4-7.93,15.74,15.74,0,0,1,4.34-6.27,20.25,20.25,0,0,1,7.5-4.07,36.34,36.34,0,0,1,11-1.45Z" transform="translate(-615.51 -864.71)" fill="#7f7f7f"/><path d="M843.33,1277.68H829.39l25.4-64.3q2-5.14,5.74-7.23a19,19,0,0,1,9.48-2.09,18.79,18.79,0,0,1,9.38,2.09q3.71,2.08,5.63,7.23l24.43,64.3h-14l-22-58.19a3.53,3.53,0,0,0-3.53-2.47,3.72,3.72,0,0,0-3.65,2.47Z" transform="translate(-615.51 -864.71)" fill="#7f7f7f"/><path d="M995.08,1205.34V1218H974v59.69H961.22V1218H940.1v-12.65Z" transform="translate(-615.51 -864.71)" fill="#7f7f7f"/><path d="M1044.49,1263.11v17.36q0,15.21-13.93,15.22h-3.76v-9.33h1.29q4.19,0,4.18-4.6v-18.65Z" transform="translate(-615.51 -864.71)" fill="#7f7f7f"/><path d="M1090.79,1205.34l22,58.2a3.52,3.52,0,0,0,3.53,2.46,3.66,3.66,0,0,0,3.54-2.46l23-58.2h14l-25.51,64.31a13.65,13.65,0,0,1-5.73,7.23,18.93,18.93,0,0,1-9.38,2.09,20.31,20.31,0,0,1-9.27-2q-3.91-2-6-7.34l-24.22-64.31Z" transform="translate(-615.51 -864.71)" fill="#7f7f7f"/><path d="M1258.51,1205.34V1218h-36.23q-5.77,0-8.36,2.46a8.81,8.81,0,0,0-2.57,6.65q0,8.58,11,8.57H1258v11.47h-35.9q-11,0-11,8.79a8.54,8.54,0,0,0,2.68,6.7c1.79,1.6,4.54,2.41,8.25,2.41h36.66v12.64H1222a35.31,35.31,0,0,1-11-1.5,20.9,20.9,0,0,1-7.5-4.12,15.32,15.32,0,0,1-4.29-6.27,22.36,22.36,0,0,1-1.34-7.83,18.59,18.59,0,0,1,2.68-10.34,16.7,16.7,0,0,1,7.71-6.27q-10.17-4.17-10.18-16.29a22,22,0,0,1,1.4-7.93,15.74,15.74,0,0,1,4.34-6.27,20.25,20.25,0,0,1,7.5-4.07,36.34,36.34,0,0,1,11-1.45Z" transform="translate(-615.51 -864.71)" fill="#7f7f7f"/><path d="M1320.67,1277.68H1308v-57.87q0-7.07,4.07-11.41t12.54-4.34q7.5,0,11.42,3.59a24.25,24.25,0,0,1,6.16,9.8l21.11,46.19a6.27,6.27,0,0,0,1.72,2.15,4.48,4.48,0,0,0,2.89.85,4.26,4.26,0,0,0,3.16-1.12,4,4,0,0,0,1.13-3v-57.23H1385v57.77q0,7.19-4.13,11.52t-12.48,4.34a21.82,21.82,0,0,1-6.59-.91,14.23,14.23,0,0,1-4.93-2.68,17.14,17.14,0,0,1-3.59-4.23,29,29,0,0,1-2.58-5.58l-21.11-46.19a4.68,4.68,0,0,0-4.5-3.11,4.43,4.43,0,0,0-3.27,1.13,4.12,4.12,0,0,0-1.12,3Z" transform="translate(-615.51 -864.71)" fill="#7f7f7f"/><path d="M1484.75,1205.34V1218h-21.12v59.69h-12.75V1218h-21.11v-12.65Z" transform="translate(-615.51 -864.71)" fill="#7f7f7f"/><path d="M1627.82,1196.55a20.23,20.23,0,0,1,8,1.45,15.6,15.6,0,0,1,9,9.81,22.7,22.7,0,0,1,1.07,7.07,17.48,17.48,0,0,1-3.1,10.45q-3.12,4.34-10.51,8l-6.64,3.33,12.75,14.68,9.43-12.65h13.4l-15.65,20.79,16,18.22H1647l-8.36-9.54a41.14,41.14,0,0,1-5.19,5,22.26,22.26,0,0,1-4.77,2.89,17.85,17.85,0,0,1-4.83,1.34,39.59,39.59,0,0,1-5.25.32h-12.22a22.63,22.63,0,0,1-7.34-1.18,16.42,16.42,0,0,1-6.11-3.64,16.93,16.93,0,0,1-4.12-6.27,24.63,24.63,0,0,1-1.5-9.06,21.72,21.72,0,0,1,.86-6.37,14.46,14.46,0,0,1,3-5.31A28.19,28.19,0,0,1,1597,1241a68.11,68.11,0,0,1,9.33-5l3-1.39-3.75-4.39a26.21,26.21,0,0,1-4.45-6.81,20.53,20.53,0,0,1-1.66-8.52,20.86,20.86,0,0,1,1.18-7.07,16.42,16.42,0,0,1,3.53-5.84,16.9,16.9,0,0,1,5.74-4,19.93,19.93,0,0,1,7.88-1.45Zm-9.11,70.09a15.44,15.44,0,0,0,6.54-1.33,20.52,20.52,0,0,0,6.32-5.31l-16.18-18.43-3.43,1.71c-2.5,1.29-4.58,2.41-6.22,3.38a19.43,19.43,0,0,0-3.91,2.89,8,8,0,0,0-2,3,10.08,10.08,0,0,0-.54,3.43,11.56,11.56,0,0,0,2.52,7.77,8.75,8.75,0,0,0,7,2.94Zm-7.07-50.58a10.7,10.7,0,0,0,1.07,5,20.69,20.69,0,0,0,3.21,4.45l3.65,4.18,6.64-3.21a19.42,19.42,0,0,0,6.16-4.24,8.78,8.78,0,0,0,2.09-6.16,10.49,10.49,0,0,0-1.82-6.16q-1.82-2.62-6.32-2.63h-6.43q-4.4,0-6.32,2.52A10,10,0,0,0,1611.64,1216.06Z" transform="translate(-615.51 -864.71)" fill="#7f7f7f"/><path d="M1775.5,1277.68h-13.93l25.4-64.3a13.61,13.61,0,0,1,5.73-7.23,19.08,19.08,0,0,1,9.49-2.09,18.78,18.78,0,0,1,9.37,2.09q3.7,2.08,5.63,7.23l24.44,64.3h-14l-22-58.19a3.55,3.55,0,0,0-3.54-2.47,3.71,3.71,0,0,0-3.64,2.47Z" transform="translate(-615.51 -864.71)" fill="#7f7f7f"/><path d="M1898.1,1205.34v72.34h-12.64v-72.34Z" transform="translate(-615.51 -864.71)" fill="#7f7f7f"/><path d="M1987.7,1205.34a28.07,28.07,0,0,1,10.5,1.77,20.4,20.4,0,0,1,7.23,4.72,18.1,18.1,0,0,1,4.18,6.91A25.38,25.38,0,0,1,2011,1227a27.62,27.62,0,0,1-.85,6.81,22.79,22.79,0,0,1-2.68,6.32,19.69,19.69,0,0,1-4.72,5.2,20.53,20.53,0,0,1-7.07,3.43l16.82,28.93h-14l-16.5-28h-18.86a1.61,1.61,0,0,0-1.82,1.82v26.15h-12.65v-28.61q0-6.1,2.68-8.79c1.79-1.78,4.68-2.68,8.68-2.68h28.19a11.19,11.19,0,0,0,4.61-.86,8.46,8.46,0,0,0,3.1-2.25,9.23,9.23,0,0,0,1.77-3.21,12.25,12.25,0,0,0,.59-3.75,10,10,0,0,0-2.41-6.7q-2.41-2.83-7.66-2.84h-39.66v-12.65Z" transform="translate(-615.51 -864.71)" fill="#7f7f7f"/><path d="M2178,1205.34V1218h-28q-10.5,0-15.27,5.52t-4.77,18.06q0,12.43,4.72,18t15.32,5.52h28v12.64h-28q-15.86,0-24.27-9t-8.42-27.16q0-18.33,8.42-27.28t24.27-9Z" transform="translate(-615.51 -864.71)" fill="#7f7f7f"/><path d="M2265.06,1205.34q15.86,0,24.27,9t8.41,27.33q0,18.22-8.41,27.12t-24.27,8.89h-9.86q-15.87,0-24.28-8.89t-8.41-27.12q0-18.32,8.41-27.33t24.28-9ZM2255.2,1218q-10.51,0-15.28,5.57t-4.77,18.11q0,12.43,4.72,17.9t15.33,5.47h9.86q10.39,0,15.16-5.52t4.77-18q0-12.43-4.72-18t-15.21-5.57Z" transform="translate(-615.51 -864.71)" fill="#7f7f7f"/><path d="M2358.29,1277.68h-12.64v-57.87q0-7.07,4.07-11.41t12.54-4.34q7.5,0,11.41,3.59a24.26,24.26,0,0,1,6.17,9.8l21.11,46.19a6.37,6.37,0,0,0,1.71,2.15,4.53,4.53,0,0,0,2.9.85,4.28,4.28,0,0,0,3.16-1.12,4,4,0,0,0,1.12-3v-57.23h12.76v57.77q0,7.19-4.13,11.52T2406,1279a21.86,21.86,0,0,1-6.59-.91,14.42,14.42,0,0,1-4.93-2.68,17.35,17.35,0,0,1-3.59-4.23,29,29,0,0,1-2.57-5.58l-21.11-46.19a4.68,4.68,0,0,0-4.5-3.11,4.43,4.43,0,0,0-3.27,1.13,4.13,4.13,0,0,0-1.13,3Z" transform="translate(-615.51 -864.71)" fill="#7f7f7f"/><path d="M2504.58,1205.34q16,0,24.28,8.9t8.3,27.33q0,18.32-8.3,27.22t-24.28,8.89h-25.5q-6,0-6-5.89v-60.55q0-5.9,6-5.9Zm-18.86,58.41c0,.86.46,1.29,1.39,1.29h17.47q10.5,0,15.22-5.58t4.72-18q0-12.43-4.67-18t-15.27-5.52h-17.47c-.93,0-1.39.43-1.39,1.28Z" transform="translate(-615.51 -864.71)" fill="#7f7f7f"/><path d="M2597.82,1205.34v72.34h-12.64v-72.34Z" transform="translate(-615.51 -864.71)" fill="#7f7f7f"/><path d="M2697.7,1205.34V1218h-21.11v59.69h-12.75V1218h-21.12v-12.65Z" transform="translate(-615.51 -864.71)" fill="#7f7f7f"/><path d="M2755.36,1205.34v72.34h-12.64v-72.34Z" transform="translate(-615.51 -864.71)" fill="#7f7f7f"/><path d="M2845.81,1205.34q15.87,0,24.28,9t8.41,27.33q0,18.22-8.41,27.12t-24.28,8.89H2836q-15.85,0-24.27-8.89t-8.41-27.12q0-18.32,8.41-27.33t24.27-9ZM2836,1218q-10.5,0-15.27,5.57t-4.77,18.11q0,12.43,4.72,17.9T2836,1265h9.86q10.39,0,15.17-5.52t4.77-18q0-12.43-4.72-18t-15.22-5.57Z" transform="translate(-615.51 -864.71)" fill="#7f7f7f"/><path d="M2939.05,1277.68h-12.64v-57.87q0-7.07,4.07-11.41t12.54-4.34q7.5,0,11.41,3.59a24.14,24.14,0,0,1,6.16,9.8l21.12,46.19a6.25,6.25,0,0,0,1.71,2.15,4.5,4.5,0,0,0,2.89.85,4.29,4.29,0,0,0,3.17-1.12,4,4,0,0,0,1.12-3v-57.23h12.75v57.77q0,7.19-4.12,11.52t-12.49,4.34a21.82,21.82,0,0,1-6.59-.91,14.42,14.42,0,0,1-4.93-2.68,17.35,17.35,0,0,1-3.59-4.23,28.43,28.43,0,0,1-2.57-5.58L2948,1219.38a4.68,4.68,0,0,0-4.5-3.11,4.43,4.43,0,0,0-3.27,1.13,4.13,4.13,0,0,0-1.13,3Z" transform="translate(-615.51 -864.71)" fill="#7f7f7f"/><path d="M3111.6,1205.34V1218h-36.23q-5.77,0-8.36,2.46a8.81,8.81,0,0,0-2.57,6.65q0,8.58,11,8.57h35.58v11.47h-35.9q-11,0-11,8.79a8.54,8.54,0,0,0,2.68,6.7c1.79,1.6,4.54,2.41,8.25,2.41h36.65v12.64h-36.65a35.31,35.31,0,0,1-11-1.5,20.9,20.9,0,0,1-7.5-4.12,15.32,15.32,0,0,1-4.29-6.27,22.36,22.36,0,0,1-1.34-7.83,18.59,18.59,0,0,1,2.68-10.34,16.65,16.65,0,0,1,7.71-6.27q-10.17-4.17-10.18-16.29a22,22,0,0,1,1.4-7.93,15.74,15.74,0,0,1,4.34-6.27,20.25,20.25,0,0,1,7.5-4.07,36.39,36.39,0,0,1,11-1.45Z" transform="translate(-615.51 -864.71)" fill="#7f7f7f"/><path d="M3200.23,1205.34a28.07,28.07,0,0,1,10.5,1.77,20.4,20.4,0,0,1,7.23,4.72,18.1,18.1,0,0,1,4.18,6.91,25.38,25.38,0,0,1,1.34,8.25,27.62,27.62,0,0,1-.85,6.81,22.79,22.79,0,0,1-2.68,6.32,19.69,19.69,0,0,1-4.72,5.2,20.53,20.53,0,0,1-7.07,3.43l16.82,28.93h-14l-16.5-28h-18.86a1.61,1.61,0,0,0-1.82,1.82v26.15h-12.65v-28.61q0-6.1,2.68-8.79c1.78-1.78,4.68-2.68,8.68-2.68h28.19a11.11,11.11,0,0,0,4.6-.86,8.41,8.41,0,0,0,3.11-2.25,9.23,9.23,0,0,0,1.77-3.21,12.25,12.25,0,0,0,.59-3.75,10,10,0,0,0-2.41-6.7q-2.42-2.83-7.66-2.84H3161v-12.65Z" transform="translate(-615.51 -864.71)" fill="#7f7f7f"/></svg>